<svg width="41" height="40" viewBox="0 0 41 40" fill="none" xmlns="http://www.w3.org/2000/svg">
<g id="&#229;&#184;&#150;&#229;&#173;&#144;&#230;&#181;&#143;&#232;&#167;&#136;&#233;&#135;&#143;icon">
<path id="Vector" d="M3.5228 20.5801C3.38042 20.2059 3.38042 19.7943 3.5228 19.4201C4.90945 16.1399 7.26322 13.3352 10.2857 11.3616C13.3082 9.38804 16.8632 8.33447 20.5002 8.33447C24.1372 8.33447 27.6922 9.38804 30.7147 11.3616C33.7372 13.3352 36.091 16.1399 37.4776 19.4201C37.62 19.7943 37.62 20.2059 37.4776 20.5801C36.091 23.8604 33.7372 26.665 30.7147 28.6386C27.6922 30.6122 24.1372 31.6658 20.5002 31.6658C16.8632 31.6658 13.3082 30.6122 10.2857 28.6386C7.26322 26.665 4.90945 23.8604 3.5228 20.5801Z" stroke="black" stroke-width="1.5" stroke-linecap="round" stroke-linejoin="round"/>
<path id="Vector_2" d="M20.5 25C23.3305 25 25.625 22.7614 25.625 20C25.625 17.2386 23.3305 15 20.5 15C17.6695 15 15.375 17.2386 15.375 20C15.375 22.7614 17.6695 25 20.5 25Z" stroke="black" stroke-width="1.5" stroke-linecap="round" stroke-linejoin="round"/>
</g>
</svg>
