<svg width="41" height="40" viewBox="0 0 41 40" fill="none" xmlns="http://www.w3.org/2000/svg">
<g id="&#229;&#184;&#150;&#229;&#173;&#144;&#232;&#175;&#132;&#232;&#174;&#186;icon">
<path id="Vector" d="M23.916 14.9999C23.916 15.884 23.556 16.7318 22.9153 17.3569C22.2745 17.9821 21.4055 18.3333 20.4993 18.3333H10.2493L3.41602 24.9999V6.66659C3.41602 5.78253 3.77598 4.93468 4.41673 4.30956C5.05748 3.68444 5.92653 3.33325 6.83268 3.33325H20.4993C21.4055 3.33325 22.2745 3.68444 22.9153 4.30956C23.556 4.93468 23.916 5.78253 23.916 6.66659V14.9999Z" stroke="black" stroke-width="1.5" stroke-linecap="round" stroke-linejoin="round"/>
<path id="Vector_2" d="M30.7507 15H34.1673C35.0735 15 35.9425 15.3512 36.5833 15.9763C37.224 16.6014 37.584 17.4493 37.584 18.3333V36.6667L30.7507 30H20.5007C19.5945 30 18.7255 29.6488 18.0847 29.0237C17.444 28.3986 17.084 27.5507 17.084 26.6667V25" stroke="black" stroke-width="1.5" stroke-linecap="round" stroke-linejoin="round"/>
</g>
</svg>
