<svg width="40" height="40" viewBox="0 0 40 40" fill="none" xmlns="http://www.w3.org/2000/svg">
<path d="M16.666 3.3335V16.6668L21.666 11.6668L26.666 16.6668V3.3335" stroke="black" stroke-width="1.5" stroke-linecap="round" stroke-linejoin="round"/>
<path d="M6.66602 32.5002V7.50016C6.66602 6.39509 7.105 5.33529 7.8864 4.55388C8.66781 3.77248 9.72761 3.3335 10.8327 3.3335H31.666C32.108 3.3335 32.532 3.50909 32.8445 3.82165C33.1571 4.13421 33.3327 4.55814 33.3327 5.00016V35.0002C33.3327 35.4422 33.1571 35.8661 32.8445 36.1787C32.532 36.4912 32.108 36.6668 31.666 36.6668H10.8327C9.72761 36.6668 8.66781 36.2278 7.8864 35.4464C7.105 34.665 6.66602 33.6052 6.66602 32.5002ZM6.66602 32.5002C6.66602 31.3951 7.105 30.3353 7.8864 29.5539C8.66781 28.7725 9.72761 28.3335 10.8327 28.3335H33.3327" stroke="black" stroke-width="1.5" stroke-linecap="round" stroke-linejoin="round"/>
</svg>
