<svg width="40" height="40" viewBox="0 0 40 40" fill="none" xmlns="http://www.w3.org/2000/svg">
<path d="M30 33.3335C30 30.6813 28.9464 28.1378 27.0711 26.2624C25.1957 24.3871 22.6522 23.3335 20 23.3335C17.3478 23.3335 14.8043 24.3871 12.9289 26.2624C11.0536 28.1378 10 30.6813 10 33.3335" stroke="black" stroke-width="1.5" stroke-linecap="round" stroke-linejoin="round"/>
<path d="M20.0007 23.3333C23.6825 23.3333 26.6673 20.3486 26.6673 16.6667C26.6673 12.9848 23.6825 10 20.0007 10C16.3188 10 13.334 12.9848 13.334 16.6667C13.334 20.3486 16.3188 23.3333 20.0007 23.3333Z" stroke="black" stroke-width="1.5" stroke-linecap="round" stroke-linejoin="round"/>
<path d="M20.0007 36.6668C29.2054 36.6668 36.6673 29.2049 36.6673 20.0002C36.6673 10.7954 29.2054 3.3335 20.0007 3.3335C10.7959 3.3335 3.33398 10.7954 3.33398 20.0002C3.33398 29.2049 10.7959 36.6668 20.0007 36.6668Z" stroke="black" stroke-width="1.5" stroke-linecap="round" stroke-linejoin="round"/>
</svg>
