<svg width="45" height="45" viewBox="0 0 45 45" fill="none" xmlns="http://www.w3.org/2000/svg">
<path d="M30 39.375V35.625C30 33.6359 29.2098 31.7282 27.8033 30.3217C26.3968 28.9152 24.4891 28.125 22.5 28.125H11.25C9.26088 28.125 7.35322 28.9152 5.9467 30.3217C4.54018 31.7282 3.75 33.6359 3.75 35.625V39.375" stroke="black" stroke-width="1.5" stroke-linecap="round" stroke-linejoin="round"/>
<path d="M16.875 20.625C21.0171 20.625 24.375 17.2671 24.375 13.125C24.375 8.98286 21.0171 5.625 16.875 5.625C12.7329 5.625 9.375 8.98286 9.375 13.125C9.375 17.2671 12.7329 20.625 16.875 20.625Z" stroke="black" stroke-width="1.5" stroke-linecap="round" stroke-linejoin="round"/>
<path d="M30 20.625L33.75 24.375L41.25 16.875" stroke="black" stroke-width="1.5" stroke-linecap="round" stroke-linejoin="round"/>
</svg>
