<svg width="60" height="59" viewBox="0 0 60 59" fill="none" xmlns="http://www.w3.org/2000/svg">
<path d="M6.465 41.1182C5.52725 40.1963 5.00028 38.946 5 37.6421V21.3581C5.00028 20.0542 5.52725 18.8038 6.465 17.882L18.185 6.35733C19.1225 5.43521 20.394 4.91703 21.72 4.91675H38.28C39.606 4.91703 40.8775 5.43521 41.815 6.35733L53.535 17.882C54.4727 18.8038 54.9997 20.0542 55 21.3581V37.6421C54.9997 38.946 54.4727 40.1963 53.535 41.1182L41.815 52.6428C40.8775 53.565 39.606 54.0831 38.28 54.0834H21.72C20.394 54.0831 19.1225 53.565 18.185 52.6428L6.465 41.1182Z" fill="#6A4C93"/>
<path d="M37.5 22.125L22.5 36.875" stroke="white" stroke-width="1.5" stroke-linecap="round" stroke-linejoin="round"/>
<path d="M22.5 22.125L37.5 36.875" stroke="white" stroke-width="1.5" stroke-linecap="round" stroke-linejoin="round"/>
</svg>
