<svg width="21" height="23" viewBox="0 0 21 23" fill="none" xmlns="http://www.w3.org/2000/svg">
<g id="Frame">
<path id="Vector" d="M18.5272 6.52812C18.9898 6.02157 19.2498 5.33449 19.2498 4.61803C19.2499 3.90156 18.9901 3.21441 18.5276 2.70773C18.0651 2.20105 17.4378 1.91635 16.7836 1.91626C16.1295 1.91617 15.5021 2.2007 15.0394 2.70725L3.36169 15.5C3.15853 15.7219 3.00829 15.9951 2.92419 16.2955L1.76832 20.4661C1.7457 20.549 1.744 20.637 1.76337 20.7209C1.78275 20.8048 1.8225 20.8813 1.87839 20.9424C1.93428 21.0035 2.00424 21.0469 2.08083 21.068C2.15743 21.0891 2.23781 21.0871 2.31344 21.0622L6.12232 19.7972C6.39634 19.7059 6.64572 19.5424 6.84857 19.3209L18.5272 6.52812Z" stroke="black" stroke-width="1.5" stroke-linecap="round" stroke-linejoin="round"/>
<path id="Vector_2" d="M13.125 4.79163L16.625 8.62496" stroke="black" stroke-width="1.5" stroke-linecap="round" stroke-linejoin="round"/>
</g>
</svg>
