<svg width="40" height="40" viewBox="0 0 40 40" fill="none" xmlns="http://www.w3.org/2000/svg">
<g id="Frame">
<path id="Vector" d="M33.3346 21.6666C33.3346 29.9999 27.5013 34.1666 20.568 36.5833C20.2049 36.7063 19.8105 36.7004 19.4513 36.5666C12.5013 34.1666 6.66797 29.9999 6.66797 21.6666V9.99994C6.66797 9.55791 6.84356 9.13399 7.15612 8.82142C7.46869 8.50886 7.89261 8.33327 8.33464 8.33327C11.668 8.33327 15.8346 6.33327 18.7346 3.79994C19.0877 3.49827 19.5369 3.33252 20.0013 3.33252C20.4657 3.33252 20.9149 3.49827 21.268 3.79994C24.1846 6.34994 28.3346 8.33327 31.668 8.33327C32.11 8.33327 32.5339 8.50886 32.8465 8.82142C33.159 9.13399 33.3346 9.55791 33.3346 9.99994V21.6666Z" fill="#6A4C93"/>
<path id="Vector_2" d="M15 20.0001L18.3333 23.3334L25 16.6667" stroke="white" stroke-width="1.5" stroke-linecap="round" stroke-linejoin="round"/>
</g>
</svg>
